<?xml version="1.0" encoding="utf-8"?>
<!-- Generator: Adobe Illustrator 28.0.0, SVG Export Plug-In . SVG Version: 6.00 Build 0)  -->
<svg version="1.1" id="Layer_1" xmlns="http://www.w3.org/2000/svg" xmlns:xlink="http://www.w3.org/1999/xlink" x="0px" y="0px"
	 viewBox="0 0 300 67.9" style="enable-background:new 0 0 300 67.9;" xml:space="preserve">
<style type="text/css">
	.st0{fill:none;}
	.st1{fill:#FFFFFF;}
	.st2{fill:#A6A8AB;}
	.st3{fill-rule:evenodd;clip-rule:evenodd;}
	.st4{fill:#EC1C24;}
	.st5{fill-rule:evenodd;clip-rule:evenodd;fill:#EC1C24;}
</style>
<g>
	<path class="st0" d="M185.6,50c0-0.1,0.1-0.2,0.1-0.2c-0.1,0-0.2,0.1-0.3,0.1C185.5,49.9,185.5,49.9,185.6,50z"/>
	<polygon class="st0" points="238,53.5 238,53.5 238,53.5 	"/>
	<path class="st1" d="M239.4,55.1c0.2,0.1,0.5,0.1,0.7,0.1c1.5-0.1,2.7-1.1,3.9-3c0.6-1,1.1-1.8,1.5-2.7c0.5-0.9,0.9-1.7,1.4-2.6
		l0,0l0.1,0c0.9-0.2,1.9-0.3,2.8-0.5l1.2-0.2l-0.2,0.2c-0.7,0.8-1.2,1.7-1.6,2.5c-0.3,0.6-0.5,1.3-0.5,1.9c0,0.3,0.1,0.6,0.2,0.9
		c0.5,1,1.7,1.4,3.6,1.4c2-0.1,4.3-0.9,7.2-2.4c0.5-0.3,1-0.6,1.5-0.9l0.1,0l0.1,0.1c0.2,0.2,0.6,0.4,0.9,0.5c0.3,0,0.5,0,0.8,0
		l2.6-0.8l-0.8,0.5c-0.6,0.4-1,1.1-0.8,1.8c0.1,0.7,0.7,1.3,1.4,1.4c0.4,0.1,0.8,0.1,1.2,0c1.1,0,2.3-0.2,3.3-0.4
		c0.8-0.1,1.5-0.3,2.3-0.4l0.6-0.1c1.6-0.3,3.2-0.6,4.7-0.9l1.5-0.3c2-0.4,4-0.8,6.1-1.2c1.6-0.3,3.2-0.7,4.8-1.2
		c0.7-0.2,1.3-0.4,1.9-0.8c0.7-0.4,1-1.3,0.7-2.1c-0.1-0.4-0.4-0.7-0.8-1.1c-0.8-0.8-1.8-1.3-2.8-1.8c-0.9-0.4-1.8-0.9-2.7-1.5
		l-0.2-0.1l0.2-0.1c1.5-0.5,2.8-0.9,4-1.2c1-0.2,2.2-0.5,3.3-0.6c0.3,0,0.6,0,0.9,0.1c0.4,0.1,0.8,0.1,1.3,0.1
		c0.8,0,1.5-0.3,2.2-0.8c0.7-0.5,1.2-1,1.5-1.5l0.1,0l-0.1-0.1c0.2-0.5,0.3-1,0.1-1.4c-0.2-0.5-0.6-0.8-1.1-1
		c-0.3-0.1-0.8-0.2-1.3-0.1c-3.3,0.1-6.5,0.8-9,1.4c-1.6,0.4-3.6,0.9-5.4,1.7l-0.1,0l0-0.1c-0.1-0.2-0.2-0.4-0.3-0.5
		c-0.5-0.7-1.4-1-2.5-0.8c-1.5,0.2-3,0.8-4.8,1.9l-0.1,0.1l-0.1-0.1c-0.6-1-1.7-1.5-2.9-1.3c-1.1,0.2-2.3,0.9-3.1,1.5
		c-1.5,1-2.8,2.3-4.1,3.7l-0.1,0.1l-0.1-0.1c-0.2-0.3-0.6-0.6-0.9-0.8c-1-0.7-2.1-1-3.4-0.9c-0.7,0-1.4,0.2-2.1,0.4l0,0l0,0
		c-0.1,0-0.2-0.1-0.3-0.1c-0.4-0.1-0.8-0.2-1.5-0.1c-0.4,0-0.8,0.1-1.3,0.1c-1,0.1-1.9,0.3-2.9,0.5c-0.4,0.1-0.7,0.1-1.1,0.2
		c-0.3,0.1-0.6,0.1-0.9,0.2l-0.2,0l0.1-0.2c0.3-0.4,0.5-0.8,0.8-1.2c0.5-0.7,1-1.5,1.4-2.3c0.2-0.4,0.6-1.1,0.6-1.7
		c0-0.1,0-0.1,0-0.2c0-0.3-0.1-0.6-0.3-0.9c-0.4-0.6-1.1-0.9-2.2-0.9c-0.8,0-1.5,0.3-2.3,0.9c0,0,0,0-0.1,0.1
		c-0.2,0.2-0.4,0.3-0.5,0.6c-0.2,0.2-0.3,0.4-0.5,0.7l-0.4,0.6l5.8-19.2c0.3-1,0-1.9-0.8-2.6c-0.3-0.2-0.6-0.5-0.9-0.6l-0.2-0.1
		l0.2-0.1c2.5-1.3,4.1-3.2,4.8-5.4c0.6-1.9,0.3-3.7-0.8-5.2c-1.7-2.2-5-3.6-9-3.6c-2.9,0-5.7,0.7-8,1.9l-0.1,0l-0.1-0.1
		c-0.1-0.2-0.3-0.4-0.5-0.7c-0.8-0.8-1.9-1.2-3.3-1.2h-13.5c-0.9,0-1.8,0.2-2.6,0.7l-0.1,0l-0.1,0c-0.7-0.4-1.6-0.6-2.5-0.6h-13.5
		c-1.9,0-3.6,1-4,2.4l-5,16.4l-0.1-0.1c-3.5-3.7-9.5-5.6-17.4-5.6c-5.1,0-10.2,0.9-14.8,2.5l-0.1,0l0-0.1c-0.1-0.2-0.3-0.4-0.5-0.6
		c-0.8-0.8-1.9-1.2-3.3-1.2h-9.4l1.3-4.2c0.3-1.1-0.1-2.1-1.1-2.9c-1-0.8-2.4-1.1-3.9-0.9l-14,2.4c-1.6,0.3-2.8,1.2-3.1,2.4l-1,3.2
		h-4.7c-1.8,0-3.3,0.8-3.9,2l0,0.1l-0.1-0.1c-3.5-1.8-8.4-2.7-14.7-2.7c-5,0-10.3,0.5-14.9,1.5l-0.1,0l0,0c-0.7-0.7-1.6-1.2-2.7-1.3
		c-1.1-0.1-2.3-0.2-3.6-0.2c-3.4,0-6.9,0.7-10.1,2.1l-0.1,0l-0.1-0.1c-0.1-0.1-0.2-0.2-0.3-0.3c-0.8-0.7-1.9-1.1-3.2-1.1H59l0.5-0.2
		c2.4-1.1,4.2-2.9,4.8-4.9L65.8,4c0.3-1,0-1.9-0.8-2.6c-0.8-0.8-1.9-1.2-3.3-1.2H8.3c-1.9,0-3.6,1-4,2.4L1.7,11
		c-0.3,1,0,1.9,0.8,2.6c0.8,0.8,1.9,1.2,3.3,1.2h6L0.3,52.6c-0.3,1,0,1.9,0.8,2.6c0.8,0.8,1.9,1.2,3.3,1.2h5.1c0.2,0,0.4,0,0.6,0
		c5-0.5,11.3-2.3,13.5-8c0-0.1,0-0.1,0.1-0.2l4.5-14.9h18.5l-4.2,13.9c-0.3,1,0,1.9,0.8,2.6c0.8,0.8,1.9,1.2,3.3,1.2H60
		c1.9,0,3.6-1,4-2.4l4.8-15.9c1-3.4,4.2-5.3,9-5.3c1.1,0,2,0,2.8,0.1c0.8,0.1,1.5,0,2.2-0.2l0,0l0,0c0,0,0.1,0,0.1,0l0.3,0.1
		l-0.3,0.1c-7.2,2.4-11.7,6.1-13.1,11c-0.7,2.3-0.4,4.5,0.7,6.5c2.4,4.1,8.3,6.5,15.8,6.5c4,0,8-0.6,11.5-1.8l0.1,0l0,0
		c0.1,0.1,0.1,0.1,0.2,0.2c0.8,0.6,1.8,1,3,1h12.1c2.3,0,4.1-1.4,4.1-3.1c0-1,0.2-2.2,0.5-3.6L118,44l0.1,0.3c0.1,0.3,0.3,0.7,0.4,1
		c2.6,5.2,9.9,6.3,15.5,6.3c4.5,0,7.9-0.3,10.4-0.8c1.5-0.3,2.6-1.2,2.9-2.4l0.4-1.4l0.1,0.1c5.2,3.6,12.8,4.5,18.3,4.5l0.2,0
		l-0.2,0.2c-0.4,0.4-0.7,0.9-1.1,1.3l-0.5,0.5c-1.3,1.5-3,3.5-4.6,5.5c-1.7,2.1-3.1,3.9-4.2,5.5c-0.3,0.5-0.4,1-0.2,1.6
		c0.4,0.9,1.2,1.5,2.3,1.4c2-0.1,4.1-2.3,5.6-4c0,0,0,0,0-0.1c0.6-0.8,1.3-1.6,1.9-2.4c0.6-0.8,1.2-1.6,1.9-2.3l0.9-1.1
		c0.7-0.8,1.3-1.7,2-2.5l0,0l0,0c0.3-0.1,0.6-0.1,0.9-0.2c0.6-0.1,1.2-0.3,1.9-0.4c0.2,0,0.3-0.1,0.5-0.1l0.2-0.1l-0.2,0.4
		c0,0,0,0.1,0,0.1c-0.3,0.8-0.7,1.9-0.9,3c0,0.2,0,0.5,0,0.7c0.1,0.9,0.8,1.5,1.7,1.5c0,0,0.1,0,0.1,0c0.4,0,0.9-0.1,1.3-0.1
		c0.7-0.1,1.3-0.4,1.8-0.8c0.3-0.2,0.5-0.5,0.6-0.9c0-0.1,0.1-0.2,0.1-0.3l0.1-0.3l0.1,0.2c0.1,0.2,0.2,0.4,0.4,0.6
		c0.6,0.7,1.5,1,2.7,0.9c3.4-0.1,6.5-1.3,9-3.4c0.2-0.1,0.3-0.3,0.5-0.4l0,0h1L192,56c-0.1,0.2-0.1,0.3-0.2,0.5l0,0.1
		c-0.2,0.5-0.4,1-0.5,1.5c0,0.1,0,0.1,0,0.2l0,0c0,0.7,0.5,1.3,1.2,1.6c0.2,0.1,0.5,0.1,0.7,0.1c1.5-0.1,2.7-1.1,3.9-3
		c0.2-0.3,0.4-0.6,0.5-0.9l0-0.1h1.6l0,0.1c0,0.2-0.1,0.4-0.1,0.6c0,0.3,0.1,0.6,0.2,0.9c0.5,1,1.7,1.4,3.6,1.4
		c1.9-0.1,4.1-0.8,6.9-2.2l0.3-0.2l-0.2,0.3c-0.4,0.9-0.7,1.6-0.7,2c0,0.5,0.1,1,0.5,1.4c0.4,0.4,0.9,0.5,1.4,0.4l0.1,0
		c0.3,0,0.4,0,0.6,0c0.8-0.1,1.5-0.6,2-1.4c0.2-0.3,0.5-0.7,0.7-1c0.4-0.6,0.8-1.2,1.2-1.8c0.3-0.5,0.7-1,1-1.5l0.1-0.1l0.1,0
		c0.4,0.2,0.8,0.3,1.4,0.2c0.5-0.1,1.1-0.4,1.9-0.8l0.1-0.1l0,0.1c0.1,0.3,0.3,0.6,0.6,0.9c0,0,0.1,0.1,0.1,0.1
		c0.7,0.6,1.6,0.5,2.2,0.3c0.1,0,0.2-0.1,0.4-0.1c0.2,0,0.4-0.1,0.6-0.1c0.2,0,0.5-0.1,0.7-0.2l0.1,0l0,0c0.8,0.6,2.1,0.7,3,0.6
		c2-0.1,4.3-0.8,7.2-2.4c0.9-0.5,2.2-1.2,3.4-2.2l0,0h0.3l-0.1,0.2c-0.1,0.2-0.2,0.3-0.2,0.5l0,0.1c-0.2,0.5-0.4,1-0.5,1.5
		c0,0.1,0,0.1,0,0.2l-0.1,0c0,0,0,0,0,0l0.1,0C238.2,54.2,238.7,54.9,239.4,55.1z M186.1,49.6c-0.1,0.2-0.3,0.4-0.4,0.6l-0.1,0.2
		l-0.1-0.2c0,0-0.1-0.1-0.1-0.1c-0.1-0.1-0.2-0.2-0.2-0.3l-0.2-0.1l0.2-0.1c0.3-0.1,0.5-0.1,0.7-0.2l0.3-0.1L186.1,49.6z
		 M187.8,48.2l-0.3,0.1l0.3-0.4l0.2,0.2L187.8,48.2z"/>
	<path class="st2" d="M299.9,35.9c-0.2-0.5-0.6-0.9-1.2-1.1c-0.4-0.1-1-0.2-1.4-0.1c-3.3,0.1-6.6,0.8-9,1.4
		c-1.5,0.4-3.5,0.9-5.3,1.7c-0.1-0.2-0.2-0.3-0.3-0.5c-0.6-0.8-1.5-1.1-2.7-0.9c-1.5,0.2-3,0.8-4.8,1.9c-0.7-1-1.8-1.5-3.1-1.3
		c-1.2,0.2-2.3,0.9-3.2,1.5c-1.5,1-2.8,2.2-4,3.6c-0.2-0.3-0.5-0.5-0.9-0.8c-1-0.7-2.2-1-3.6-1c-0.7,0-1.4,0.2-2.1,0.4
		c-0.1,0-0.2-0.1-0.3-0.1c-0.4-0.1-0.9-0.2-1.5-0.1c-0.4,0-0.8,0.1-1.3,0.1c-1,0.1-1.9,0.3-2.9,0.5c-0.4,0.1-0.7,0.1-1.1,0.2
		c-0.2,0-0.5,0.1-0.7,0.1c0.2-0.3,0.4-0.7,0.6-1c0.5-0.7,1-1.5,1.4-2.4c0.2-0.5,0.6-1.1,0.7-1.8c0-0.1,0-0.1,0-0.2
		c0-0.4-0.1-0.7-0.3-1c-0.5-0.7-1.3-1-2.4-1c-0.8,0-1.6,0.3-2.4,0.9c0,0-0.1,0-0.1,0.1c-0.2,0.2-0.4,0.4-0.6,0.6
		c0,0.1-0.1,0.1-0.1,0.2l5.4-17.9c0.3-1,0-2-0.8-2.8c-0.2-0.2-0.5-0.4-0.8-0.6c2.4-1.4,4.1-3.3,4.7-5.5c0.6-2,0.3-3.8-0.8-5.3
		c-1.7-2.3-5.1-3.7-9.2-3.7c-2.9,0-5.7,0.7-8,1.9c-0.1-0.2-0.3-0.4-0.5-0.6c-0.9-0.8-2-1.2-3.4-1.2h-13.5c-1,0-1.9,0.2-2.6,0.7
		c-0.7-0.4-1.6-0.6-2.6-0.6h-13.5c-2,0-3.8,1.1-4.2,2.6l-4.8,16.1c-3.5-3.6-9.5-5.6-17.4-5.6c-5.1,0-10.2,0.9-14.8,2.5
		c-0.1-0.2-0.3-0.4-0.5-0.6c-0.9-0.8-2-1.2-3.4-1.2h-9.1l1.2-3.9c0.3-1.2-0.1-2.3-1.2-3.1c-1.1-0.8-2.5-1.2-4-0.9l-14,2.4
		c-1.7,0.3-2.9,1.2-3.3,2.5l-0.9,3h-4.5c-1.8,0-3.4,0.8-4,2.1c-3.5-1.8-8.5-2.7-14.7-2.7c-5,0-10.2,0.5-14.8,1.5
		c-0.7-0.7-1.6-1.2-2.8-1.3c-1.1-0.1-2.3-0.2-3.7-0.2c-3.4,0-6.9,0.7-10.1,2.1c-0.1-0.1-0.2-0.2-0.3-0.3c-0.9-0.8-2-1.2-3.3-1.2
		h-6.9c2.2-1.1,3.9-2.9,4.5-4.8L66,4.1c0.3-1,0-2-0.8-2.8c-0.9-0.8-2-1.2-3.4-1.2H8.3C6.3,0,4.5,1.1,4,2.6l-2.5,8.3
		c-0.3,1,0,2,0.8,2.8c0.9,0.8,2,1.2,3.4,1.2h5.7L0.1,52.6c-0.3,1,0,2,0.8,2.8c0.9,0.8,2,1.2,3.4,1.2h5.1c0.2,0,0.4,0,0.6,0
		c7.2-0.8,11.9-3.6,13.7-8.1c0-0.1,0-0.1,0.1-0.2l4.5-14.8h18.1l-4.1,13.6c-0.3,1,0,2,0.8,2.8c0.9,0.8,2,1.2,3.4,1.2H60
		c2,0,3.8-1.1,4.2-2.6L69,32.8c1-3.3,4.1-5.1,8.8-5.1c1.1,0,2,0,2.8,0.1c0.4,0,0.9,0,1.3,0c-6.7,2.4-10.7,6.1-12.2,10.8
		c-0.7,2.3-0.5,4.6,0.7,6.7c3.5,6,12.3,6.6,16,6.6c4,0,8-0.6,11.5-1.8c0.1,0,0.1,0.1,0.2,0.1c0.9,0.7,1.9,1,3.1,1h12.1
		c2.4,0,4.3-1.5,4.4-3.3c0-0.9,0.2-2,0.4-3.2c0.1,0.2,0.2,0.5,0.3,0.7c2.7,5.3,10,6.4,15.7,6.4c4.5,0,7.9-0.3,10.5-0.9
		c1.6-0.4,2.7-1.3,3-2.5l0.3-1.1c5.1,3.5,12.6,4.4,18,4.5c-0.3,0.4-0.6,0.8-1,1.1l-0.5,0.5c-1.3,1.5-3,3.5-4.6,5.5
		c-1.7,2.1-3.1,3.9-4.2,5.6c-0.4,0.5-0.4,1.2-0.2,1.8c0.4,1,1.3,1.6,2.4,1.6c0,0,0.1,0,0.1,0c2-0.1,4.3-2.4,5.7-4.1c0,0,0,0,0.1-0.1
		c0.6-0.8,1.3-1.6,1.9-2.4c0.6-0.8,1.2-1.6,1.9-2.3l0.9-1.1c0.7-0.8,1.3-1.6,2-2.5c0.3-0.1,0.6-0.1,0.9-0.2c0.6-0.1,1.2-0.3,1.9-0.4
		c0.1,0,0.2,0,0.2-0.1c0,0,0,0.1,0,0.1c-0.3,0.8-0.7,1.9-0.9,3.1c0,0.3,0,0.5,0,0.7c0.1,1,1,1.8,2.1,1.7c0.4,0,0.9-0.1,1.3-0.1
		c0.7-0.1,1.4-0.4,2-0.8c0.3-0.3,0.5-0.6,0.7-1c0,0,0,0,0,0c0.1,0.1,0.2,0.3,0.3,0.4c0.6,0.7,1.6,1.1,2.9,1c3.5-0.1,6.6-1.3,9.2-3.4
		c0.1-0.1,0.3-0.2,0.4-0.4h0.6c0,0.1-0.1,0.2-0.1,0.3l0,0.1c-0.2,0.5-0.5,1-0.5,1.5c0,0.1,0,0.2,0,0.2c0,0,0,0,0,0
		c0,0.8,0.6,1.5,1.4,1.8c0.2,0.1,0.5,0.1,0.8,0.1c1.5-0.1,2.9-1.1,4.1-3.1c0.2-0.3,0.3-0.6,0.5-0.9h1.2c0,0.2,0,0.4,0,0.5
		c0,0.3,0.1,0.7,0.2,0.9c0.5,1,1.6,1.5,3.4,1.5c0.1,0,0.3,0,0.4,0c1.9-0.1,4-0.8,6.7-2.1c-0.4,0.8-0.6,1.4-0.6,1.8
		c0,0.6,0.2,1.2,0.6,1.6c0.4,0.4,1,0.6,1.6,0.5l0.1,0c0.2,0,0.4,0,0.6,0c0.9-0.1,1.6-0.7,2.2-1.5c0.2-0.3,0.5-0.7,0.7-1
		c0.4-0.6,0.8-1.2,1.2-1.8c0.3-0.5,0.6-1,1-1.4c0.4,0.2,0.9,0.3,1.4,0.2c0.5-0.1,1.1-0.3,1.9-0.8c0.1,0.3,0.3,0.6,0.6,0.8
		c0,0,0.1,0.1,0.1,0.1c0.8,0.6,1.7,0.5,2.4,0.4c0.1,0,0.3-0.1,0.4-0.1c0.2,0,0.4-0.1,0.5-0.1c0.2,0,0.5-0.1,0.7-0.2
		c0.9,0.6,2.2,0.7,3.1,0.6c2-0.1,4.3-0.8,7.3-2.4c0.8-0.4,2.1-1.1,3.1-2c0,0.1-0.1,0.1-0.1,0.2l0,0.1c-0.2,0.5-0.5,1-0.5,1.5
		c0,0.1,0,0.2,0,0.2l0,0c0,0.8,0.6,1.5,1.4,1.7c0.2,0.1,0.5,0.1,0.8,0.1c1.5-0.1,2.9-1.1,4.1-3.1c0.6-1,1.1-1.8,1.5-2.7
		c0.5-0.8,0.9-1.7,1.4-2.5c0.9-0.2,1.8-0.3,2.8-0.5l0.6-0.1c-0.6,0.8-1.1,1.6-1.5,2.4c-0.3,0.6-0.5,1.3-0.5,2c0,0.3,0.1,0.7,0.2,0.9
		c0.5,1.1,1.8,1.6,3.8,1.5c2-0.1,4.3-0.8,7.3-2.4c0.5-0.3,1-0.5,1.4-0.8c0.3,0.2,0.6,0.4,1,0.5c0.3,0,0.6,0.1,0.9,0l1.1-0.4
		c-0.4,0.4-0.6,1-0.5,1.7c0.2,0.8,0.8,1.4,1.6,1.5c0.4,0.1,0.8,0.1,1.2,0c1.1,0,2.3-0.2,3.4-0.4c0.8-0.1,1.5-0.3,2.3-0.4l0.6-0.1
		c1.6-0.3,3.2-0.6,4.7-0.9l1.5-0.3c2-0.4,4-0.8,6.1-1.2c1.6-0.3,3.2-0.7,4.8-1.2c0.7-0.2,1.4-0.5,2-0.8c0.8-0.5,1.2-1.4,0.8-2.3
		c-0.2-0.4-0.4-0.8-0.8-1.2c-0.8-0.8-1.9-1.3-2.9-1.8c-0.8-0.4-1.7-0.8-2.5-1.3c1.4-0.5,2.6-0.8,3.8-1.1c1.1-0.3,2.2-0.5,3.3-0.6
		c0.3,0,0.6,0,0.8,0.1c0.4,0.1,0.8,0.1,1.3,0.1c0.8,0,1.6-0.3,2.3-0.8c0.7-0.5,1.2-1,1.5-1.6l0,0v0C300,37,300.1,36.4,299.9,35.9z
		 M238,53.5l0.1,0c0-0.1,0-0.1,0-0.2c0-0.5,0.3-1,0.5-1.5l0-0.1c0.1-0.2,0.2-0.3,0.2-0.5l0.1-0.2h-0.3l0,0c-1.2,0.9-2.5,1.7-3.4,2.2
		c-2.9,1.6-5.2,2.3-7.2,2.4c-0.9,0-2.1,0-3-0.6l0,0l-0.1,0c-0.2,0.1-0.5,0.2-0.7,0.2c-0.2,0-0.4,0.1-0.6,0.1c-0.1,0-0.2,0.1-0.4,0.1
		c-0.7,0.1-1.5,0.2-2.2-0.3c0,0-0.1-0.1-0.1-0.1c-0.3-0.2-0.4-0.5-0.6-0.9l0-0.1l-0.1,0.1c-0.8,0.5-1.4,0.7-1.9,0.8
		c-0.5,0.1-1,0-1.4-0.2l-0.1,0l-0.1,0.1c-0.3,0.5-0.7,1-1,1.5c-0.4,0.6-0.8,1.2-1.2,1.8c-0.2,0.3-0.5,0.7-0.7,1
		c-0.5,0.8-1.2,1.3-2,1.4c-0.2,0-0.4,0-0.6,0l-0.1,0c-0.5,0.1-1-0.1-1.4-0.4c-0.4-0.4-0.6-0.9-0.5-1.4c0-0.5,0.3-1.1,0.7-2l0.2-0.3
		l-0.3,0.2c-2.7,1.4-5,2.2-6.9,2.2c-1.9,0.1-3.1-0.4-3.6-1.4c-0.1-0.3-0.2-0.6-0.2-0.9c0-0.2,0-0.4,0.1-0.6l0-0.1h-1.6l0,0.1
		c-0.2,0.3-0.4,0.6-0.5,0.9c-1.2,2-2.5,3-3.9,3c-0.3,0-0.5,0-0.7-0.1c-0.7-0.2-1.2-0.8-1.2-1.6l0,0c0-0.1,0-0.1,0-0.2
		c0-0.5,0.3-1,0.5-1.5l0-0.1c0.1-0.2,0.1-0.3,0.2-0.5l0.1-0.2h-1l0,0c-0.2,0.1-0.3,0.3-0.5,0.4c-2.6,2.1-5.6,3.2-9,3.4
		c-1.2,0-2.1-0.3-2.7-0.9c-0.2-0.2-0.3-0.4-0.4-0.6l-0.1-0.2l-0.1,0.3c0,0.1-0.1,0.2-0.1,0.3c-0.1,0.4-0.3,0.6-0.6,0.9
		c-0.5,0.4-1.2,0.7-1.8,0.8c-0.4,0.1-0.9,0.1-1.3,0.1c0,0-0.1,0-0.1,0c-0.9,0-1.6-0.7-1.7-1.5c0-0.2,0-0.4,0-0.7
		c0.1-1.1,0.5-2.2,0.9-3c0,0,0-0.1,0-0.1l0.2-0.4l-0.2,0.1c-0.2,0-0.3,0.1-0.5,0.1c-0.7,0.2-1.3,0.3-1.9,0.4
		c-0.3,0.1-0.6,0.1-0.9,0.2l0,0l0,0c-0.7,0.8-1.3,1.7-2,2.5l-0.9,1.1c-0.6,0.8-1.3,1.5-1.9,2.3c-0.6,0.8-1.3,1.6-1.9,2.4
		c0,0,0,0,0,0.1c-1.5,1.7-3.6,3.9-5.6,4c-1.1,0-1.9-0.5-2.3-1.4c-0.2-0.5-0.1-1.1,0.2-1.6c1.1-1.7,2.5-3.5,4.2-5.5
		c1.7-2,3.3-4,4.6-5.5l0.5-0.5c0.4-0.4,0.7-0.9,1.1-1.3l0.2-0.2l-0.2,0c-5.5-0.1-13.1-0.9-18.3-4.5l-0.1-0.1l-0.4,1.4
		c-0.3,1.2-1.4,2-2.9,2.4c-2.5,0.6-5.9,0.8-10.4,0.8c-5.6,0-12.9-1.1-15.5-6.3c-0.2-0.3-0.3-0.7-0.4-1L118,44l-0.1,0.4
		c-0.3,1.4-0.5,2.6-0.5,3.6c0,1.7-1.9,3.1-4.1,3.1h-12.1c-1.2,0-2.2-0.3-3-1C98.1,50.1,98,50,98,49.9l0,0l-0.1,0
		c-3.5,1.2-7.4,1.8-11.5,1.8c-7.5,0-13.4-2.4-15.8-6.5c-1.1-2-1.4-4.2-0.7-6.5c1.5-4.9,5.9-8.6,13.1-11l0.3-0.1l-0.3-0.1
		c0,0-0.1,0-0.1,0l0,0l0,0c-0.7,0.2-1.5,0.3-2.2,0.2c-0.8-0.1-1.7-0.1-2.8-0.1c-4.8,0-8,1.9-9,5.3L64,48.6c-0.4,1.4-2.1,2.4-4,2.4
		H46.5c-1.3,0-2.4-0.4-3.3-1.2c-0.8-0.8-1.1-1.7-0.8-2.6l4.2-13.9H28.1l-4.5,14.9c0,0.1,0,0.1-0.1,0.2c-2.2,5.6-8.6,7.4-13.5,8
		c-0.2,0-0.4,0-0.6,0H4.4c-1.3,0-2.4-0.4-3.3-1.2c-0.8-0.8-1.1-1.7-0.8-2.6l11.4-37.8h-6c-1.3,0-2.4-0.4-3.3-1.2
		c-0.8-0.8-1.1-1.7-0.8-2.6l2.5-8.3c0.4-1.4,2.1-2.4,4-2.4h53.5c1.3,0,2.4,0.4,3.3,1.2c0.8,0.8,1.1,1.7,0.8,2.6L64.3,9
		c-0.6,2-2.4,3.8-4.8,4.9L59,14.1H67c1.2,0,2.3,0.4,3.2,1.1c0.1,0.1,0.2,0.2,0.3,0.3l0.1,0.1l0.1,0c3.2-1.4,6.7-2.1,10.1-2.1
		c1.3,0,2.5,0.1,3.6,0.2c1.2,0.1,2.1,0.6,2.7,1.3l0,0l0.1,0c4.6-1,9.9-1.5,14.9-1.5c6.2,0,11.2,0.9,14.7,2.7l0.1,0.1l0-0.1
		c0.6-1.2,2.1-2,3.9-2h4.7l1-3.2c0.4-1.2,1.5-2.1,3.1-2.4l14-2.4c1.4-0.2,2.8,0.1,3.9,0.9c1,0.8,1.4,1.8,1.1,2.9l-1.3,4.2h9.4
		c1.3,0,2.4,0.4,3.3,1.2c0.2,0.2,0.4,0.4,0.5,0.6l0,0.1l0.1,0c4.5-1.6,9.7-2.5,14.8-2.5c7.9,0,13.9,1.9,17.4,5.6l0.1,0.1l5-16.4
		c0.4-1.4,2.1-2.4,4-2.4h13.5c1,0,1.8,0.2,2.5,0.6l0.1,0l0.1,0c0.7-0.4,1.6-0.7,2.6-0.7h13.5c1.3,0,2.4,0.4,3.3,1.2
		c0.2,0.2,0.4,0.4,0.5,0.7l0.1,0.1l0.1,0c2.3-1.3,5.1-1.9,8-1.9c4,0,7.4,1.3,9,3.6c1.1,1.5,1.4,3.3,0.8,5.2
		c-0.7,2.2-2.3,4.1-4.8,5.4l-0.2,0.1l0.2,0.1c0.3,0.2,0.6,0.4,0.9,0.6c0.8,0.8,1.1,1.7,0.8,2.6l-5.8,19.2l0.4-0.6
		c0.2-0.3,0.4-0.5,0.5-0.7c0.2-0.2,0.3-0.4,0.5-0.6c0,0,0,0,0.1-0.1c0.7-0.6,1.5-0.9,2.3-0.9c1,0,1.8,0.3,2.2,0.9
		c0.2,0.3,0.3,0.6,0.3,0.9c0,0.1,0,0.1,0,0.2c0,0.6-0.4,1.2-0.6,1.7c-0.4,0.8-0.9,1.6-1.4,2.3c-0.2,0.4-0.5,0.8-0.8,1.2l-0.1,0.2
		l0.2,0c0.3-0.1,0.6-0.1,0.9-0.2c0.4-0.1,0.7-0.1,1.1-0.2c0.9-0.2,1.9-0.3,2.9-0.5c0.5-0.1,0.9-0.1,1.3-0.1c0.6,0,1.1,0,1.5,0.1
		c0.1,0,0.2,0.1,0.3,0.1l0,0l0,0c0.7-0.2,1.4-0.4,2.1-0.4c1.3,0,2.5,0.3,3.4,0.9c0.4,0.2,0.7,0.5,0.9,0.8l0.1,0.1l0.1-0.1
		c1.2-1.4,2.6-2.7,4.1-3.7c0.9-0.6,2-1.3,3.1-1.5c1.2-0.2,2.3,0.3,2.9,1.3l0.1,0.1l0.1-0.1c1.8-1.1,3.4-1.7,4.8-1.9
		c1.2-0.2,2,0.1,2.5,0.8c0.1,0.2,0.2,0.3,0.3,0.5l0,0.1l0.1,0c1.8-0.8,3.8-1.3,5.4-1.7c2.5-0.6,5.7-1.3,9-1.4c0.5,0,1,0,1.3,0.1
		c0.5,0.2,0.9,0.5,1.1,1c0.2,0.5,0.2,1-0.1,1.4l0.1,0.1l-0.1,0c-0.3,0.6-0.8,1.1-1.5,1.5c-0.7,0.5-1.4,0.7-2.2,0.8
		c-0.5,0-0.9,0-1.3-0.1c-0.3,0-0.6-0.1-0.9-0.1c-1.1,0-2.3,0.3-3.3,0.6c-1.2,0.3-2.5,0.7-4,1.2l-0.2,0.1l0.2,0.1
		c0.9,0.6,1.9,1,2.7,1.5c1,0.5,2,1,2.8,1.8c0.4,0.4,0.6,0.7,0.8,1.1c0.3,0.8,0,1.6-0.7,2.1c-0.6,0.3-1.3,0.6-1.9,0.8
		c-1.6,0.5-3.2,0.9-4.8,1.2c-2,0.4-4.1,0.8-6.1,1.2l-1.5,0.3c-1.6,0.3-3.2,0.6-4.7,0.9l-0.6,0.1c-0.7,0.1-1.5,0.3-2.3,0.4
		c-1.1,0.2-2.2,0.3-3.3,0.4c-0.4,0-0.8,0-1.2,0c-0.7-0.1-1.3-0.6-1.4-1.4c-0.1-0.7,0.2-1.4,0.8-1.8l0.8-0.5l-2.6,0.8
		c-0.3,0-0.5,0-0.8,0c-0.4-0.1-0.7-0.2-0.9-0.5l-0.1-0.1l-0.1,0c-0.5,0.3-1,0.6-1.5,0.9c-2.9,1.5-5.2,2.3-7.2,2.4
		c-1.9,0.1-3.1-0.4-3.6-1.4c-0.1-0.3-0.2-0.6-0.2-0.9c0-0.6,0.2-1.3,0.5-1.9c0.4-0.8,0.9-1.7,1.6-2.5l0.2-0.2l-1.2,0.2
		c-0.9,0.2-1.9,0.3-2.8,0.5l-0.1,0l0,0c-0.5,0.9-0.9,1.7-1.4,2.6c-0.5,0.8-1,1.7-1.5,2.7c-1.2,2-2.5,3-3.9,3c-0.3,0-0.5,0-0.7-0.1
		c-0.7-0.2-1.2-0.8-1.2-1.6L238,53.5L238,53.5L238,53.5z"/>
	<polygon class="st2" points="187.8,48.1 187.7,48.1 187.8,48.1 	"/>
	<path class="st2" d="M187.5,48.3l0.3-0.1l0.2-0.1l-0.2-0.2L187.5,48.3z M187.8,48.1L187.8,48.1L187.8,48.1L187.8,48.1z"/>
	<path class="st2" d="M185.5,50.1c0,0,0.1,0.1,0.1,0.1c0.1-0.2,0.2-0.5,0.4-0.7c-0.2,0.1-0.5,0.2-0.7,0.2
		C185.3,49.9,185.4,50,185.5,50.1z M185.6,50c0-0.1-0.1-0.1-0.1-0.1c0.1,0,0.2-0.1,0.3-0.1C185.6,49.8,185.6,49.9,185.6,50z"/>
	<path class="st2" d="M185.2,49.7l-0.2,0.1l0.2,0.1c0.1,0.1,0.2,0.2,0.2,0.3c0,0,0.1,0.1,0.1,0.1l0.1,0.2l0.1-0.2
		c0.1-0.2,0.2-0.4,0.4-0.6l0.2-0.3l-0.3,0.1C185.7,49.6,185.5,49.6,185.2,49.7z M185.6,50.2c0,0-0.1-0.1-0.1-0.1
		c-0.1-0.1-0.2-0.2-0.3-0.3c0.3-0.1,0.5-0.1,0.7-0.2C185.8,49.8,185.7,50,185.6,50.2z"/>
	<g>
		<path class="st3" d="M24.8,30.2h22.4l2.2-7.1H27l3-9.8H16.5L4.4,53.3h5.1c5.3-0.6,8.8-2.3,10.1-5.7L24.8,30.2z"/>
	</g>
	<g>
		<path class="st3" d="M161,29.4c1.3-3,5.2-7.1,11.7-7.1c6.6,0,7.6,3.9,6.5,7.1H161z M189.6,35c0.5-0.9,1-2,1.3-3.3
			c3-9.9-3.4-15.2-15.7-15.2c-14.8,0-25.5,7.6-28.2,16.4c-2.9,9.5,4.2,15.5,19.9,15.5c6.3,0,12.4-0.7,16.9-1.8l-0.2-5.6
			c-3.7,0.7-7.8,1.3-12.8,1.3c-7.3,0-12.8-2.1-11.6-7.3H189.6z M120.7,17.2l-1.8,6h8l-4.3,14.2c-1,3.4-3.1,11.1,11.5,11.1
			c3.9,0,7.3-0.3,9.2-0.7l1.7-6.2c-1.4,0.2-2.5,0.3-4.5,0.3c-4.1,0-5.5-1.5-4.4-5.2l4-13.4l7.9-0.1c4.3-0.2,6.5-1.5,7.7-3.4l0.8-2.5
			H142l2.4-8l-14,2.4l-1.7,5.6H120.7z M102.6,37.4c-1.2,3.9-6.9,5.3-10.1,5.3c-3.4,0-6-1.3-5.1-4.2c1.3-4.5,9.2-5.5,16.5-5.5
			L102.6,37.4z M84.6,24.5c3.6-1.2,8.5-2.1,13.1-2.1c7.4,0,8.4,2.3,7.5,5.4C89,27.8,76.4,31.4,74,39.3c-1.5,5,3,9.2,12.4,9.2
			c5.6,0,11-1.4,14.6-3.8h0.3l-0.1,3.2h12.1c0-1.9,0.7-4.6,1.5-7.3l3.4-11.3c2-6.7-0.4-12.8-16.2-12.8c-7.9,0-14.6,1.4-18.4,2.6
			L84.6,24.5z M65.9,22.6l1.1-5.4H55.4C54.7,20,54,23,52.9,26.8l-6.4,21.1H60l4.8-15.9c1.6-5.2,7-7.7,13.1-7.7
			c1.4,0,2.4,0.1,3.4,0.2l2.3-7.8c-0.9-0.1-1.7-0.2-3-0.2c-4.7,0-10.8,2-14.4,6H65.9z"/>
	</g>
	<g>
		<path d="M201.7,3.5l-11.6,38.3c-1.1,3.4,0.9,5.6,6.6,6h5l13.4-44.4H201.7z"/>
	</g>
	<g>
		<path d="M220.4,3.5l-11.6,38.3c-1.1,3.4,0.9,5.6,6.6,6h5l13.4-44.4H220.4z"/>
	</g>
	<g>
		<polygon points="235,17.2 225.7,47.9 239.2,47.9 248.4,17.2 		"/>
	</g>
	<g>
		<path class="st4" d="M251.6,8.3c0.9-2.9-1.4-4.9-5.8-4.9c-4.2,0-7.8,2.1-8.7,4.9c-0.8,2.8,1.4,4.9,5.7,4.9
			C247,13.2,250.7,11.3,251.6,8.3"/>
	</g>
	<g>
		<path class="st5" d="M8.3,3.4h53.5l-1.5,4.9c-0.6,1.9-2.9,3.4-5.2,3.4H5.8L8.3,3.4z"/>
	</g>
	<g>
		<path class="st5" d="M274.6,42.2c0.9-1,2-1.7,3.4-2c0.1,0,0.2,0,0.2,0.1l0,0c0.1,0.1,0.1,0.2,0,0.3c-0.4,0.5-1,0.9-1.6,1.2
			c-0.6,0.3-1.2,0.6-1.8,0.8c-0.1,0-0.2,0-0.3-0.1C274.6,42.3,274.6,42.2,274.6,42.2 M277.6,45.4c-0.5,0.1-1,0.3-1.5,0.5
			c-0.9,0.3-1.8,0.6-2.7,0.7c-0.4,0.1-0.8,0-1.1-0.2c-0.3-0.2-0.4-0.6-0.3-1c0-0.2,0.2-0.4,0.3-0.6c0-0.1,0.1-0.1,0.2-0.1
			c1.6-0.1,3.8-1.4,5.1-2.3c1.1-0.7,3.4-2.3,3.8-3.6c0-0.1,0.1-0.3,0-0.5c-0.2-0.2-0.7-0.2-0.9-0.1c-2.2,0.3-4.7,1.9-6.4,3.2
			c-1.6,1.2-4,3.2-4.5,5.2c-0.1,0.5-0.2,1.1,0.4,1.4c0,0,0,0,0,0c0.5,0.3,1.4,0.3,2,0.2c0.9-0.1,1.8-0.4,2.6-0.7
			C275.7,47,280.5,44.6,277.6,45.4z M273.8,39.6c-0.3-0.6-0.7-0.9-1.4-0.8c-0.8,0.1-1.8,0.7-2.4,1.2c-1.6,1.1-3.1,2.5-4.3,4.1
			c-0.1,0.2-0.3,0.4-0.4,0.6c-0.2,0.3-0.4,0.6-0.7,1c-0.7,1-1.3,1.9-1.9,2.9c0.1,0,0.2,0,0.3,0c0.5-0.1,1.1-0.4,1.6-0.6
			c0.8-1,1.6-2.1,2.3-3.2c0.8-1.1,1.6-2.2,2.6-3.2c0.4-0.3,0.9-0.8,1.4-0.9c0.2,0,0.5,0,0.8,0c0.2,0,0.4,0.1,0.6,0
			C272.9,40.6,273.5,40.1,273.8,39.6z M218.2,49.2c-0.1,0.2-0.3,0.3-0.4,0.5c0,0,0,0,0,0c-0.1,0.2-0.3,0.3-0.4,0.5
			c-0.1,0.1-0.1,0.1-0.2,0.1c-0.1,0-0.1-0.1-0.2-0.1c-0.1-0.2-0.3-0.2-0.5-0.2c-0.2,0-0.4,0.2-0.6,0.3c-0.1,0.3-0.3,0.6-0.5,0.9
			c-0.4,0.6-0.7,1.2-1.1,1.8c-0.4,0.7-3,4.9-3.1,5.7c0.1,0,0.1,0,0.2,0c0,0,0,0,0,0c0.1,0,0.2,0,0.3,0c0,0,0.1,0,0.2,0
			c0.4-0.1,0.7-0.4,0.9-0.7c0.5-0.8,3.2-4.8,3.8-5.6c0.3-0.3,0.8-0.9,1.2-0.9c0.1,0,0.1,0,0.2,0c0.3,0.1,0.2,0.5,0.2,0.7
			c0,0.1,0,0.3-0.1,0.4c0,0.1,0,0.2-0.1,0.4c0,0,0,0.1,0,0.2c0,0,0.2,0,0.3,0c1-0.2,3.5-2.2,4.3-2.8c0.1-0.1,0.2-0.1,0.3,0
			c0.1,0.1,0.1,0.2,0.1,0.3c-0.2,0.5-0.4,1-0.5,1.5c-0.1,0.3-0.2,0.6-0.2,0.9c0,0.2,0,0.5,0.1,0.6c0.3,0.2,1.5-0.2,1.8-0.2
			c0.4-0.1,0.7-0.3,1-0.5c0.2-0.2,0.5-0.5,0.6-0.8c0-0.1-0.2-0.2-0.3-0.2c0,0,0,0,0,0c-0.2-0.1-1.4,0.1-1.4-0.2
			c0-0.3,0.1-0.6,0.2-0.9c0.2-0.5,0.4-0.9,0.6-1.4c0.2-0.5,0.4-0.9,0.6-1.4c0.1-0.3,0.2-0.6,0.2-0.9c0,0,0-0.2,0-0.3
			c0,0-0.1,0-0.1,0c-0.5,0.1-2.1,1.3-2.5,1.6c-0.7,0.5-1.3,1-2,1.5c-0.2,0.1-0.4,0.3-0.5,0.4c-0.1,0.1-0.2,0.2-0.3,0.2
			c-0.1,0-0.2,0-0.3,0c-0.1-0.1-0.1-0.2-0.1-0.2c0.1-0.3,0.2-0.7,0.2-1.1c0-0.3,0-0.9-0.2-1.1c-0.1-0.1-0.2-0.1-0.3,0
			C219.1,48.3,218.5,48.8,218.2,49.2z M182.4,51.4c-0.2,0.2-0.3,0.5-0.5,0.7c-0.1,0.1-0.1,0.2-0.2,0.2c0,0.1,0,0.2-0.1,0.3
			c-0.6,1-1.7,2.9-1.6,4.1c0,0.3,0.1,0.5,0.2,0.7c0.3,0.3,0.9,0.4,1.3,0.4c3-0.1,5.7-1.1,8-3c1-0.8,2-2,2.1-3.3
			c0-0.2,0.2-0.4,0.4-0.4c0.5,0,1-0.1,1.5-0.2c0.8-0.2,1.6-0.3,2.5-0.5c0.2,0,0.4,0,0.5,0.2c0.1,0.2,0.1,0.3,0,0.5
			c-0.3,0.6-0.7,1.3-1,1.9c-0.3,0.6-0.7,1.2-1,1.9c-0.4,0.7-0.8,1.5-1.1,2.3c-0.1,0.2-0.4,0.8-0.4,1c0,0,0,0,0,0c0.1,0,0.2,0,0.2,0
			c1.1,0,2-1.4,2.5-2.2c0.5-0.9,1-1.7,1.5-2.6c0.6-1,1.1-2.1,1.7-3.1c0.1-0.1,0.2-0.2,0.3-0.2c0.8-0.1,7.6-1.3,8.4-1.5
			c0.6-0.1,1.2-0.3,1.7-0.5c0.3-0.1,0.7-0.3,1-0.4c0.1,0,0.3-0.2,0.3-0.2c0,0,0,0,0,0c0-0.1-0.2-0.1-0.2-0.1
			c-0.3-0.1-0.6-0.1-0.9-0.1c-0.4,0-0.8,0.1-1.1,0.1c-0.6,0.1-7.2,1.2-7.8,1.3c-0.2,0-0.4,0-0.5-0.2c-0.1-0.2-0.1-0.4,0-0.5
			c0.4-0.6,0.8-1.2,1.2-1.9c0.4-0.6,0.8-1.3,1.2-1.9c0,0,0,0,0,0c0.5-0.7,0.9-1.5,1.4-2.2c0.1-0.2,0.4-0.8,0.4-1c0,0,0,0,0-0.1
			c-0.1-0.1-0.6-0.1-0.7-0.1c-0.5,0-0.9,0.3-1.3,0.6c-0.1,0.1-0.2,0.2-0.3,0.3c-0.2,0.2-0.3,0.5-0.5,0.7c-0.5,0.8-1,1.7-1.5,2.5
			c0,0,0,0,0,0c-0.1,0.1-0.1,0.2-0.2,0.3c-0.1,0.3-0.3,0.5-0.4,0.8c-0.6,1-1.1,2-1.7,3c-0.1,0.1-0.2,0.2-0.3,0.2
			c-0.9,0.2-1.8,0.4-2.7,0.5c-0.3,0-0.5,0.1-0.8,0.2c-0.1,0-0.2,0-0.3,0.1c0,0,0,0,0,0c-0.5,0.1-1.1,0.3-1.6,0.6
			c-0.2,0.1-0.5,0-0.6-0.2c-0.4-0.6-1.1-0.7-1.8-0.7c-1.2,0-2,0.5-2.4,1.6c0,0,0,0.1-0.1,0.2c0.2,0.1,0.7,0.1,0.8,0.1
			c0.2,0,0.4,0,0.6-0.1c0.2-0.1,0.4,0,0.5,0.1c0.2,0.2,0.3,0.5,0.3,0.8c0,1.2-1.2,2.2-2.2,2.8c-1.1,0.7-2.4,1.3-3.7,1.5
			c-0.1,0-0.3,0-0.4-0.1c-0.3-0.3-0.5-0.7-0.5-1.2c0-0.7,0.5-1.6,0.9-2.1c0.2-0.3,0.7-1.2,0.7-1.6c0,0,0-0.1,0-0.2
			c-0.1-0.1-0.5-0.1-0.6-0.1C183.1,51,182.7,51.2,182.4,51.4z M182.2,51.4c0-0.1,0-0.1,0.1-0.2c0.1-0.1,0.1-0.2,0.1-0.3
			c-0.1-0.1-0.2-0.2-0.3-0.2c-0.2-0.1-2,0.2-1.9,0c0.6-1.3,1.3-2.7,1.9-4.1c0.4-0.9,0.9-1.9,1.2-2.9c0,0,0,0,0,0
			c0.3-0.7,0.6-1.4,0.9-2.1c0.1-0.2,0.2-0.4,0.2-0.6c0-0.1,0.1-0.2,0.1-0.3c0-0.2,0-0.5-0.1-0.6c-0.3-0.4-1-0.4-1.4-0.4
			c-3.2,0.1-10.1,7.4-12.1,9.7c-2.1,2.3-7.3,8.5-9.3,10.9c-1.4,1.7-2.8,3.6-4.1,5.4c0.1,0.2,0.3,0.4,0.6,0.3
			c1.4-0.1,3.5-2.4,4.4-3.4c0.6-0.8,1.3-1.6,1.9-2.4c0.6-0.8,4.5-5.5,5.1-6.3c0.1-0.1,0.2-0.2,0.4-0.2c0.4-0.1,0.8-0.2,1.3-0.2
			c0.6-0.1,1.2-0.3,1.8-0.4c0.6-0.2,1.2-0.3,1.8-0.4c0.5-0.1,0.9-0.2,1.4-0.2c0.2,0,0.3,0,0.4,0.2c0.1,0.1,0.1,0.3,0,0.4
			c-0.2,0.4-0.4,0.9-0.6,1.3c-0.2,0.4-0.4,0.9-0.6,1.3c-0.3,0.8-0.6,1.7-0.7,2.5c0,0.1,0,0.2,0,0.3c0.4,0,0.8-0.1,1.2-0.1
			c0.4,0,0.7-0.2,1-0.4c0.1-0.4,0.2-0.7,0.4-1.1c0.2-0.5,0.4-0.9,0.6-1.4c0,0,0-0.1,0-0.1c0.1-0.2,0.2-0.4,0.3-0.6
			c0.3-0.6,0.9-1.8,1.2-2.4c0.1-0.1,1.6-0.1,1.8-0.2c0.3-0.1,0.7-0.3,1-0.6C182,51.4,182.1,51.4,182.2,51.4z M181.1,42.9
			c-0.2,0.2-0.3,0.4-0.4,0.7c0,0,0,0,0,0c-0.2,0.3-0.3,0.6-0.4,0.9c0,0,0,0,0,0l-2.9,6.2c-0.1,0.2-0.2,0.3-0.4,0.3
			c-1,0.2-2.1,0.3-3.1,0.5c-0.6,0.1-1.3,0.2-1.9,0.4c-0.2,0.1-0.4,0-0.5-0.2c-0.1-0.2-0.1-0.4,0.1-0.5c1.1-1.3,2.2-2.6,3.4-3.8
			c0.8-0.9,1.7-1.9,2.6-2.8c0.6-0.6,1.2-1.2,1.9-1.7c0.4-0.3,0.9-0.7,1.3-0.7c0.2,0,0.3,0,0.4,0.2l0,0.1
			C181.2,42.5,181.2,42.7,181.1,42.9z M281.8,43.8c0.6,0.3,1.3,0.6,1.9,0.8c0.7,0.3,1.3,0.6,2,0.9c0.4,0.2,0.4,0.7,0.2,1
			c-0.2,0.3-0.6,0.6-1,0.7c-1.2,0.2-12.7,2.4-13.9,2.7c-0.9,0.2-1.8,0.4-2.7,0.6c-0.4,0.1-0.9,0.2-1.3,0.4c-0.3,0.1-0.9,0.3-1.1,0.4
			c0.3,0,0.6,0,0.9,0c1.1,0,2.1-0.2,3.2-0.3c1.6-0.2,13.5-2.5,15.1-2.9c1.6-0.3,3.1-0.7,4.6-1.1c0.4-0.1,1.2-0.4,1.6-0.6
			c-0.1-0.2-0.2-0.3-0.3-0.5c-0.6-0.6-1.6-1.1-2.4-1.5c-1.1-0.5-2.1-1.1-3.1-1.7c-0.5-0.3-1.2-0.8-1.5-1.4c-0.1-0.3,0-0.6,0.2-0.8
			c0.2-0.2,0.5-0.4,0.7-0.5c1.7-0.6,3.5-1.1,5.3-1.6c1.2-0.3,2.5-0.6,3.7-0.6c0.4,0,0.8,0,1.2,0.1c0.3,0,0.6,0.1,0.9,0.1
			c0.5,0,0.9-0.2,1.3-0.5c0.4-0.2,0.7-0.6,0.9-0.9c0,0,0,0,0,0c-0.2-0.1-0.6-0.1-0.7-0.1c-2.9,0.1-5.9,0.7-8.7,1.4
			c-2.1,0.5-6.1,1.6-7.6,3.1c-0.1,0.1-0.1,0.1-0.2,0.2c-0.1,0.1-0.2,0.2-0.3,0.2c0,0.1-0.1,0.2-0.1,0.3c0,0,0,0,0,0
			C280.1,42.7,281.1,43.4,281.8,43.8z M264,44.7c0-0.1-0.1-0.2-0.1-0.2c0,0,0,0,0-0.1c0-0.7-0.4-1.2-1-1.5c-0.7-0.5-1.5-0.7-2.4-0.6
			c-2.1,0.1-4.2,1.4-5.8,2.8c-1.5,1.2-3.1,2.8-3.8,4.5c-0.1,0.3-0.4,0.9-0.4,1.1c0,0.1,0,0.1,0,0.2c0.2,0.5,1.6,0.4,2,0.4
			c2.1-0.1,4.6-1.2,6.5-2.2c1.4-0.7,4-2.2,4.6-3.7c0.1-0.1,0.1-0.2,0.1-0.4C263.9,44.8,263.9,44.7,264,44.7z M239.5,47.4
			c0-0.1-0.1-0.2-0.1-0.2c0,0,0,0,0-0.1c0-0.2-0.1-0.5-0.2-0.7c0.4,0,0.9-0.1,1.3-0.2c0.8-0.2,1.6-0.3,2.5-0.5c0.2,0,0.4,0,0.5,0.2
			c0.1,0.2,0.1,0.3,0,0.5c-0.3,0.6-0.7,1.3-1,1.9c-0.3,0.6-0.7,1.2-1,1.9c-0.4,0.7-0.8,1.5-1.1,2.3c-0.1,0.2-0.4,0.8-0.4,1
			c0,0,0,0,0,0c0.1,0,0.2,0,0.2,0c1.1,0,2-1.4,2.5-2.2c0.5-0.9,1-1.7,1.5-2.6c0.6-1,1.1-2.1,1.7-3.1c0.1-0.1,0.2-0.2,0.3-0.2
			c0.8-0.1,7.6-1.3,8.4-1.5c0.6-0.1,1.2-0.3,1.7-0.5c0.3-0.1,0.7-0.3,1-0.4c0.1,0,0.3-0.2,0.3-0.2c0,0,0,0,0,0
			c0-0.1-0.2-0.1-0.2-0.1c-0.3-0.1-0.6-0.1-0.9-0.1c-0.4,0-0.8,0.1-1.1,0.1c-0.6,0.1-7.2,1.2-7.8,1.3c-0.2,0-0.4,0-0.5-0.2
			c-0.1-0.2-0.1-0.4,0-0.5c0.4-0.6,0.8-1.2,1.2-1.9c0.4-0.6,0.8-1.3,1.2-1.9c0,0,0,0,0,0c0.5-0.7,0.9-1.5,1.4-2.2
			c0.1-0.2,0.4-0.8,0.4-1c0,0,0,0,0-0.1c-0.1-0.1-0.6-0.1-0.7-0.1c-0.5,0-0.9,0.3-1.3,0.6c-0.1,0.1-0.2,0.2-0.3,0.3
			c-0.2,0.2-0.3,0.5-0.5,0.7c-0.5,0.8-1,1.7-1.5,2.5c0,0,0,0,0,0c-0.1,0.1-0.1,0.2-0.2,0.3c-0.1,0.3-0.3,0.5-0.4,0.8
			c-0.6,1-1.1,2-1.7,3c-0.1,0.1-0.2,0.2-0.3,0.2c-0.9,0.2-1.8,0.4-2.7,0.5c-0.3,0-0.5,0.1-0.8,0.2c-0.1,0-0.2,0-0.3,0.1c0,0,0,0,0,0
			c-0.5,0.1-1.1,0.3-1.6,0.6c-0.1,0-0.2,0.1-0.3,0c-0.1-0.1-0.2-0.1-0.2-0.2c-0.7-0.5-1.5-0.7-2.4-0.6c-2.1,0.1-4.2,1.4-5.8,2.8
			c-1.5,1.2-3.1,2.8-3.8,4.5c-0.1,0.3-0.4,0.9-0.4,1.1c0,0.1,0,0.1,0,0.2c0.2,0.5,1.6,0.4,2,0.4c2.1-0.1,4.6-1.2,6.5-2.2
			c1.4-0.7,4-2.2,4.6-3.7c0.1-0.1,0.1-0.2,0.1-0.4C239.4,47.5,239.5,47.4,239.5,47.4z M214.5,50.5c0-0.1-0.1-0.2-0.1-0.2
			c0,0,0,0,0-0.1c0-0.7-0.4-1.2-1-1.5c-0.7-0.5-1.5-0.7-2.4-0.6c-2.1,0.1-4.2,1.4-5.8,2.8c-1.5,1.2-3.1,2.8-3.8,4.5
			c-0.1,0.3-0.4,0.9-0.4,1.1c0,0.1,0,0.1,0,0.2c0.2,0.5,1.6,0.4,2,0.4c2.1-0.1,4.6-1.2,6.5-2.2c1.4-0.7,4-2.2,4.6-3.7
			c0.1-0.1,0.1-0.2,0.1-0.4C214.4,50.6,214.4,50.5,214.5,50.5z M253.5,48.7c0.1-0.2,0.2-0.4,0.2-0.5c0.3-0.8,1.6-1.9,2.3-2.5
			c0.7-0.6,2.1-1.7,3.1-1.8c0.5,0,1,0.1,1.5,0.3c0.5,0.2,1,0.5,1.1,1c0,1-0.9,1.7-1.7,2.1c-0.6,0.3-1.3,0.6-2,0.9
			c-0.9,0.3-1.8,0.6-2.7,0.8c-0.3,0.1-0.6,0.2-0.9,0.2c-0.1,0-0.3,0.1-0.4,0.1c-0.2,0-0.3-0.1-0.4-0.2c-0.1-0.1-0.1-0.3-0.1-0.4
			C253.4,48.8,253.4,48.8,253.5,48.7C253.4,48.7,253.4,48.7,253.5,48.7z M229,51.4c0.1-0.2,0.2-0.4,0.2-0.5c0.3-0.8,1.6-1.9,2.3-2.5
			c0.7-0.6,2.1-1.7,3.1-1.8c0.5,0,1,0.1,1.5,0.3c0.5,0.2,1,0.5,1.1,1c0,1-0.9,1.7-1.7,2.1c-0.6,0.3-1.3,0.6-2,0.9
			c-0.9,0.3-1.8,0.6-2.7,0.8c-0.3,0.1-0.6,0.2-0.9,0.2c-0.1,0-0.3,0.1-0.4,0.1c-0.2,0-0.3-0.1-0.4-0.2c-0.1-0.1-0.1-0.3-0.1-0.4
			C228.9,51.5,229,51.5,229,51.4C229,51.4,229,51.4,229,51.4z M203.9,54.5c0.1-0.2,0.2-0.4,0.2-0.5c0.3-0.8,1.6-1.9,2.3-2.5
			c0.7-0.6,2.1-1.7,3.1-1.8c0.5,0,1,0.1,1.5,0.3c0.5,0.2,1,0.5,1.1,1c0,1-0.9,1.7-1.7,2.1c-0.6,0.3-1.3,0.6-2,0.9
			c-0.9,0.3-1.8,0.6-2.7,0.8c-0.3,0.1-0.6,0.2-0.9,0.2c-0.1,0-0.3,0.1-0.4,0.1c-0.2,0-0.3-0.1-0.4-0.2c-0.1-0.1-0.1-0.3-0.1-0.4
			C203.9,54.6,203.9,54.6,203.9,54.5C203.9,54.5,203.9,54.5,203.9,54.5z"/>
	</g>
</g>
</svg>
